<svg id="Logo" xmlns="http://www.w3.org/2000/svg" viewBox="0 0 2600.14 1016.1"><defs><style>.cls-1{fill:#fe0000;}.cls-2{fill:#0000fe;}</style></defs><title>Logo_svg</title><g id="logo-2" data-name="logo"><path class="cls-1" d="M563,925.55,430.24,1048.2l-85,82.26c-7.87,7-17.64,17.93-23,33.47a73.68,73.68,0,0,0-3.89,21.22c-1,22.82-1.17,94,0,190.17a19.34,19.34,0,0,0,29.84,16.24V1194.8a42.7,42.7,0,0,1,85.39,0v216.57a59.14,59.14,0,0,1-35.25,54.11l-109.26,57.83a22.64,22.64,0,0,1-13.14,4.16,22.88,22.88,0,0,1-22.88-22c0-.28,0-.57,0-.84v-322c0-1,0-1.93,0-2.89a122.72,122.72,0,0,1,5.63-34.06c4.31-13.62,14.65-31.77,25.46-44.64,21.55-25.65,112.51-111.42,240.43-222.42,14.48-14.9,37-14,47.61-2.64C583.65,888.16,581.61,908.35,563,925.55Z" transform="translate(-253.05 -866.9)"/><path class="cls-1" d="M676.48,925l131.46,124,84.13,83.15c7.79,7.08,17.45,18.1,22.63,33.7a73.62,73.62,0,0,1,3.67,21.27c.77,22.82.19,94-2,190.15a19.34,19.34,0,0,1-30,15.93l2-196.75a42.69,42.69,0,1,0-85.38-.89l-2.26,216.56a59.13,59.13,0,0,0,34.68,54.47l108.65,59A22.88,22.88,0,0,0,980.33,1508c0-.28,0-.57,0-.85l3.36-322c0-1,0-1.92,0-2.89a122.33,122.33,0,0,0-5.27-34.11c-4.16-13.67-14.32-31.92-25-44.91C932.15,1077.4,842.1,990.69,715.34,878.35c-14.32-15-36.83-14.4-47.58-3.13C656.2,887.34,658,907.55,676.48,925Z" transform="translate(-253.05 -866.9)"/><path class="cls-2" d="M635.33,1216.65a24.51,24.51,0,0,0,24.45,24.45h46.14a24.53,24.53,0,0,0,24.45-24.45v-46.18A24.54,24.54,0,0,0,705.92,1146H659.78a24.53,24.53,0,0,0-24.45,24.45Z" transform="translate(-253.05 -866.9)"/><path class="cls-2" d="M565.63,1241.1a24.51,24.51,0,0,0,24.46-24.45v-46.18A24.53,24.53,0,0,0,565.63,1146H519.49A24.53,24.53,0,0,0,495,1170.47v46.18a24.51,24.51,0,0,0,24.45,24.45Z" transform="translate(-253.05 -866.9)"/><path class="cls-2" d="M659.78,1286.33a24.51,24.51,0,0,0-24.45,24.45v46.11a24.51,24.51,0,0,0,24.45,24.45h46.14a24.52,24.52,0,0,0,24.45-24.45v-46.11a24.53,24.53,0,0,0-24.45-24.45Z" transform="translate(-253.05 -866.9)"/><path class="cls-2" d="M590.09,1310.78a24.51,24.51,0,0,0-24.46-24.45H519.49A24.51,24.51,0,0,0,495,1310.78v46.11a24.51,24.51,0,0,0,24.45,24.45h46.14a24.51,24.51,0,0,0,24.46-24.45Z" transform="translate(-253.05 -866.9)"/><path class="cls-2" d="M1067.26,1288.81l27.89-105.43q11.2-42.72,72.81-42.84h54.92a8.27,8.27,0,0,1,6.53,3.19,10.94,10.94,0,0,1,2.69,7.25v136.73a10.14,10.14,0,0,1-2.91,7.3,9.57,9.57,0,0,1-7.19,3h-21a10.31,10.31,0,0,1-10.32-10.32V1171.63h-26.8a29.19,29.19,0,0,0-29,22.07l-25.15,94a13,13,0,0,1-4.94,7.41,13.29,13.29,0,0,1-8.13,2.91h-22.3q-3.84,0-5.65-2.41a6.94,6.94,0,0,1-1.76-4.07A17.19,17.19,0,0,1,1067.26,1288.81Z" transform="translate(-253.05 -866.9)"/><path class="cls-2" d="M1263.51,1287.49V1150.76a9.69,9.69,0,0,1,3.08-7.25,10.21,10.21,0,0,1,7.35-3h126.63a9.88,9.88,0,0,1,7.31,3.08,10.14,10.14,0,0,1,3,7.36v10.32a10.33,10.33,0,0,1-10.33,10.33h-95.65v31.95h82.36a10.31,10.31,0,0,1,10.33,10.33v10.32a10.31,10.31,0,0,1-10.33,10.32h-82.36V1267h95.43a9.74,9.74,0,0,1,7.14,3,9.84,9.84,0,0,1,3,7.25v10.54a9.86,9.86,0,0,1-3.08,7.3,10.1,10.1,0,0,1-7.36,3H1273.94a10.41,10.41,0,0,1-10.43-10.54Z" transform="translate(-253.05 -866.9)"/><path class="cls-2" d="M1431.1,1287.93V1151a10.15,10.15,0,0,1,10.44-10.44h106.09a9.93,9.93,0,0,1,7.41,3A10.24,10.24,0,0,1,1558,1151v10.32a10,10,0,0,1-10.32,10.33h-75.12v116.3a9.6,9.6,0,0,1-3,7.19,10.16,10.16,0,0,1-7.31,2.91h-20.64a10.33,10.33,0,0,1-7.36-2.91A9.51,9.51,0,0,1,1431.1,1287.93Z" transform="translate(-253.05 -866.9)"/><path class="cls-2" d="M1738.94,1293.2q0,4.83-5.71,4.83h-25.15a17.86,17.86,0,0,1-9.23-3,23.45,23.45,0,0,1-7.68-7.3l-19.33-30.64q-6.93-11.21-13.95-16.86a26.14,26.14,0,0,0-16.91-5.66h-23.62v53.38a9.57,9.57,0,0,1-3,7.19,10.12,10.12,0,0,1-7.3,2.91h-20.65a9.92,9.92,0,0,1-7.35-3.13,10.2,10.2,0,0,1-3.08-7.41V1151a10.4,10.4,0,0,1,3.08-7.47,9.85,9.85,0,0,1,7.35-3.18H1607a9.68,9.68,0,0,1,7.3,3.18,10.47,10.47,0,0,1,3,7.47v52.6H1641a28.18,28.18,0,0,0,17-5.27q7.3-5.26,13.9-17l17-30.31q5.82-10.55,15.81-10.65H1730c3.52,0,5.28,1.53,5.28,4.61a13.47,13.47,0,0,1-1.87,6l-23.83,43.16a63.79,63.79,0,0,1-11.59,15.59q-6.42,6.16-16.75,8.68,7.24,1.54,14.88,9.12a101.24,101.24,0,0,1,13.46,16.47l27.45,43.71A11.28,11.28,0,0,1,1738.94,1293.2Z" transform="translate(-253.05 -866.9)"/><path class="cls-2" d="M1741.79,1287.93l27.57-104.55q11.21-42.72,72.92-42.84h59.2a8.59,8.59,0,0,1,6.75,3.08,10.48,10.48,0,0,1,2.69,7.14v137.17a9.5,9.5,0,0,1-3.07,7.19,10.33,10.33,0,0,1-7.36,2.91h-20.65a10,10,0,0,1-10.32-10.32V1260h-78.09l-7.35,27.68a12.94,12.94,0,0,1-4.95,7.41A13.24,13.24,0,0,1,1771,1298h-21.64q-4.27,0-6.15-2.47a7.24,7.24,0,0,1-1.81-4.34A18.06,18.06,0,0,1,1741.79,1287.93Zm57.77-59h70v-57.32h-31.3a29.17,29.17,0,0,0-29,22.07Z" transform="translate(-253.05 -866.9)"/><path class="cls-2" d="M1933.55,1291.77a7.94,7.94,0,0,1,1.43-4.06l30.31-50q-31.08-13.52-31-45.91,0-24.48,17-37.89t42.56-13.4h86a9.43,9.43,0,0,1,7,3,10,10,0,0,1,2.91,7.25v137.17a9.6,9.6,0,0,1-3,7.19,10.16,10.16,0,0,1-7.31,2.91h-20.75a10.31,10.31,0,0,1-10.33-10.32v-45.47H2009l-26.36,45.69q-5.6,10.11-15.93,10.1H1939C1935.38,1298,1933.55,1296,1933.55,1291.77ZM1975.61,1191q0,19.33,18.23,19.33h54.47v-38.65h-54.47Q1975.62,1171.63,1975.61,1191Z" transform="translate(-253.05 -866.9)"/><path class="cls-2" d="M1080.21,1517.84V1381.11a10.14,10.14,0,0,1,10.44-10.43H1110a10.06,10.06,0,0,1,7.3,3,9.8,9.8,0,0,1,3,7.25v109.94l62.49-109.72a23.59,23.59,0,0,1,6.92-7.36q4.39-3.07,8.13-3.07h32.39a9.66,9.66,0,0,1,7.25,3.07,10.23,10.23,0,0,1,3,7.36v136.73a9.88,9.88,0,0,1-3.08,7.31,10.14,10.14,0,0,1-7.35,3h-19.33a10.31,10.31,0,0,1-10.33-10.33V1415.93L1143,1517.84a22.26,22.26,0,0,1-7.13,7.31,16.34,16.34,0,0,1-8.9,3h-36.35a10.14,10.14,0,0,1-7.36-3A9.88,9.88,0,0,1,1080.21,1517.84Z" transform="translate(-253.05 -866.9)"/><path class="cls-2" d="M1271.86,1517.84V1381.11a10.26,10.26,0,0,1,3-7.36,9.7,9.7,0,0,1,7.25-3.07h142.55a9.87,9.87,0,0,1,7.31,3.07,10.16,10.16,0,0,1,3,7.36v136.73a9.82,9.82,0,0,1-3.13,7.31,10.34,10.34,0,0,1-7.42,3H1404a10.14,10.14,0,0,1-7.36-3,9.88,9.88,0,0,1-3.08-7.31V1401.76h-80.28v116.08a10.31,10.31,0,0,1-10.32,10.33h-20.65a10.16,10.16,0,0,1-7.36-3A9.87,9.87,0,0,1,1271.86,1517.84Z" transform="translate(-253.05 -866.9)"/><path class="cls-2" d="M1611.82,1511.86q-22.47,19.71-65.9,19.71t-66-19.71q-22.52-19.71-22.51-62.44T1480,1387q22.52-19.65,66-19.66t65.9,19.66q22.46,19.67,22.46,62.38T1611.82,1511.86Zm-30-101.65q-11.1-13.17-35.86-13.17T1510,1410.21q-11.15,13.18-11.15,39.27t11.15,39.2q11.15,13.13,35.91,13.13t35.86-13.13q11.1-13.11,11.09-39.2T1581.78,1410.21Z" transform="translate(-253.05 -866.9)"/><path class="cls-2" d="M1640,1391.44v-10.33a10.12,10.12,0,0,1,10.43-10.43h139.37a10.12,10.12,0,0,1,10.43,10.43v10.33a10,10,0,0,1-3,7.41,10.24,10.24,0,0,1-7.47,2.91h-49v116.3a9.61,9.61,0,0,1-3,7.2,10.16,10.16,0,0,1-7.31,2.91h-20.75a10.16,10.16,0,0,1-7.31-2.91,9.61,9.61,0,0,1-3-7.2v-116.3h-49a10.24,10.24,0,0,1-7.47-2.91A10,10,0,0,1,1640,1391.44Z" transform="translate(-253.05 -866.9)"/><path class="cls-2" d="M1818.12,1517.62V1380.89a9.71,9.71,0,0,1,3.08-7.25,10.25,10.25,0,0,1,7.36-3h126.62a9.87,9.87,0,0,1,7.31,3.07,10.16,10.16,0,0,1,3,7.36v10.33a10.31,10.31,0,0,1-10.33,10.32h-95.65v32h82.36a10.31,10.31,0,0,1,10.33,10.32v10.32a10.31,10.31,0,0,1-10.33,10.33h-82.36v32.4H1955a9.69,9.69,0,0,1,7.14,3,9.85,9.85,0,0,1,3,7.25v10.54a9.88,9.88,0,0,1-3.08,7.31,10.14,10.14,0,0,1-7.36,3H1828.56a10.41,10.41,0,0,1-10.44-10.55Z" transform="translate(-253.05 -866.9)"/><path class="cls-2" d="M2148.69,1523.33q0,4.85-5.71,4.84h-25.15a17.92,17.92,0,0,1-9.22-3,23.42,23.42,0,0,1-7.69-7.31l-19.33-30.64q-6.91-11.21-14-16.86a26.11,26.11,0,0,0-16.91-5.65h-23.61v53.37a9.61,9.61,0,0,1-3,7.2,10.16,10.16,0,0,1-7.31,2.91h-20.64a10,10,0,0,1-7.36-3.13,10.24,10.24,0,0,1-3.08-7.42V1381.11a10.44,10.44,0,0,1,3.08-7.47,9.87,9.87,0,0,1,7.36-3.18h20.64a9.72,9.72,0,0,1,7.31,3.18,10.54,10.54,0,0,1,3,7.47v52.61h23.61a28.28,28.28,0,0,0,17-5.27q7.31-5.28,13.89-17l17-30.31q5.82-10.54,15.82-10.65h25.37q5.26,0,5.27,4.61a13.31,13.31,0,0,1-1.87,6l-23.83,43.16a63.35,63.35,0,0,1-11.59,15.6q-6.42,6.15-16.74,8.67,7.24,1.55,14.88,9.12a101.7,101.7,0,0,1,13.45,16.47l27.46,43.71A11.42,11.42,0,0,1,2148.69,1523.33Z" transform="translate(-253.05 -866.9)"/><path class="cls-2" d="M2151.55,1518.06l27.56-104.55q11.2-42.72,72.93-42.83h59.19a8.61,8.61,0,0,1,6.76,3.07,10.53,10.53,0,0,1,2.69,7.14v137.17a9.52,9.52,0,0,1-3.08,7.2,10.33,10.33,0,0,1-7.36,2.91H2289.6a10,10,0,0,1-10.33-10.33v-27.67h-78.08l-7.36,27.67a12.91,12.91,0,0,1-4.94,7.42,13.24,13.24,0,0,1-8.13,2.91h-21.63c-2.86,0-4.91-.83-6.15-2.47a7.28,7.28,0,0,1-1.82-4.34A17.18,17.18,0,0,1,2151.55,1518.06Zm57.77-59h69.95v-57.33H2248a29.19,29.19,0,0,0-29,22.07Z" transform="translate(-253.05 -866.9)"/></g><g id="text"><path class="cls-1" d="M1884.56,1883l-19.49-283.37,160.78-11.06q14.19-1,24,8.38t10.82,24.77l4.47,65q1,15-8,25.17a32.28,32.28,0,0,1-22.7,11.09l.53,7.71a32.12,32.12,0,0,1,24,8q10.35,8.92,11.4,24.13l4.94,71.73q1,15.42-7.34,25.92t-22.58,11.48Zm68.07-186,32.16-2.21-2.18-31.62-32.15,2.21Zm7.54,109.67,32.16-2.21-2.68-38.93-32.15,2.21Z" transform="translate(-253.05 -866.9)"/><path class="cls-1" d="M2101,1832.78,2086.31,1620q-1.07-15.4,7.32-26t22.58-11.58l139.76-9.61,2.44,35.37-9.93,36.82-79.22,5.44,9.72,141.29,91.62-6.3,4.86,70.74-139.76,9.62q-14.19,1-23.94-8.28T2101,1832.78Z" transform="translate(-253.05 -866.9)"/><path class="cls-1" d="M2297.56,1854.59l-19.49-283.36,172.1-11.84,2.43,35.37-10.28,36.84-79.22,5.45,2.17,31.62,79.22-5.45,4.87,70.74-79.22,5.45,2.67,38.93,92-6.32,4.87,70.74Z" transform="translate(-253.05 -866.9)"/><path class="cls-1" d="M2484.39,1841.75l-2.42-35.18,9.34-250,89.82-6.18,27.27,110.5,5.39-.37,11.89-113.19,90.18-6.2,43.11,246.4,2.42,35.18-78.32,5.38-9.35-135.95-6.65.46-10.59,137.32-67.18,4.62L2560,1700l-6.29.43,9.35,135.95Z" transform="translate(-253.05 -866.9)"/><path class="cls-1" d="M2762.66,1573.44l-2.43-35.37,80.48-5.54,2.43,35.37-1.43,148.41-65.22,4.49Zm16.52,248-4.87-70.74,74-5.09,4.86,70.74Z" transform="translate(-253.05 -866.9)"/></g></svg>