<?xml version="1.0" encoding="utf-8"?>
<!-- Generator: Adobe Illustrator 22.1.0, SVG Export Plug-In . SVG Version: 6.00 Build 0)  -->
<svg version="1.1" id="Шар_1" xmlns="http://www.w3.org/2000/svg" xmlns:xlink="http://www.w3.org/1999/xlink" x="0px" y="0px"
	 viewBox="0 0 173 40" style="enable-background:new 0 0 173 40;" xml:space="preserve">
<style type="text/css">
	.st0{fill:#FFFFFF;}
	.st1{fill:#FFCA10;}
</style>
<path class="st0" d="M66.6,13.5h-5.9l-1.1,2.8h-2.8l5.1-12.5h3.5l5.1,12.6h-2.8L66.6,13.5L66.6,13.5z M65.7,11.3l-2-5l-2,5H65.7z
	 M79.6,7.4L76,16.3h-2.8l-3.6-8.9h2.7l2.3,5.9l2.3-5.9L79.6,7.4L79.6,7.4z M84.1,7.4c0.8,0,1.6,0.2,2.2,0.5c0.6,0.3,1.1,0.8,1.4,1.5
	c0.3,0.6,0.5,1.4,0.5,2.3v4.7H86l-0.4-0.7c-0.3,0.3-0.6,0.4-1,0.6c-0.4,0.1-0.8,0.2-1.2,0.2c-0.6,0-1.2-0.1-1.7-0.3
	c-0.5-0.2-0.9-0.5-1.2-1c-0.3-0.4-0.4-0.9-0.4-1.5c0-0.7,0.2-1.3,0.6-1.7c0.4-0.5,0.9-0.8,1.6-1s1.5-0.3,2.3-0.3c0.3,0,0.5,0,0.8,0
	c-0.1-0.4-0.2-0.7-0.5-0.9s-0.6-0.3-1.1-0.3c-0.4,0-0.8,0.1-1.2,0.2c-0.4,0.1-0.7,0.3-1,0.6L80.5,9C81.5,7.8,82.7,7.4,84.1,7.4
	L84.1,7.4z M82.8,13.6c0,0.3,0.1,0.6,0.3,0.8c0.2,0.2,0.5,0.3,0.8,0.3s0.6-0.1,0.9-0.2c0.3-0.1,0.5-0.3,0.7-0.5v-1.7
	c-0.2,0-0.5,0-0.8,0C83.4,12.2,82.8,12.7,82.8,13.6L82.8,13.6z M89.9,3.1h2.7v13.2h-2.7V3.1z M98.6,16.4c-0.9,0-1.7-0.2-2.5-0.6
	c-0.7-0.4-1.3-0.9-1.7-1.6c-0.4-0.7-0.6-1.5-0.6-2.4s0.2-1.7,0.6-2.4s1-1.2,1.7-1.6s1.5-0.6,2.5-0.6c0.9,0,1.7,0.2,2.5,0.6
	c0.7,0.4,1.3,0.9,1.7,1.6c0.4,0.7,0.6,1.5,0.6,2.4s-0.2,1.7-0.6,2.4s-1,1.2-1.7,1.6C100.4,16.2,99.6,16.4,98.6,16.4z M98.6,14.2
	c0.4,0,0.8-0.1,1.1-0.3c0.3-0.2,0.6-0.5,0.7-0.8c0.2-0.4,0.3-0.8,0.3-1.2s-0.1-0.8-0.3-1.2c-0.2-0.4-0.4-0.6-0.7-0.8
	c-0.3-0.2-0.7-0.3-1.1-0.3s-0.7,0.1-1.1,0.3c-0.3,0.2-0.6,0.5-0.8,0.8c-0.2,0.4-0.3,0.8-0.3,1.2s0.1,0.8,0.3,1.2
	c0.2,0.4,0.4,0.6,0.8,0.8C97.9,14.1,98.2,14.2,98.6,14.2L98.6,14.2z M109.5,7.4c1.3,0,2.3,0.4,3,1.2s1,2,1,3.7v4.1h-2.7v-4.1
	c0-1.8-0.5-2.7-1.6-2.7s-1.7,0.7-1.7,2.2v4.5h-2.7V7.5h2.2l0.3,1.3c0.2-0.4,0.5-0.8,0.9-1C108.4,7.5,108.9,7.4,109.5,7.4L109.5,7.4z
	 M66.6,23.1h-3.5v10.3h-2.7V23.1h-3.5v-2.3h9.8v2.3H66.6z M74.6,29.7h-6.5c0.1,0.6,0.4,1,0.8,1.3s0.9,0.5,1.5,0.5
	c0.4,0,0.7-0.1,1.1-0.2c0.4-0.2,0.6-0.4,0.9-0.6l1.6,1.4c-0.5,0.5-1,0.9-1.6,1.2s-1.3,0.4-2,0.4c-0.9,0-1.7-0.2-2.4-0.6
	c-0.7-0.4-1.3-1-1.7-1.7c-0.4-0.7-0.6-1.5-0.6-2.4s0.2-1.7,0.6-2.3c0.4-0.7,0.9-1.2,1.6-1.6s1.5-0.6,2.4-0.6s1.6,0.2,2.3,0.6
	c0.7,0.4,1.2,1,1.6,1.7s0.6,1.5,0.6,2.3v0.6H74.6z M70.3,26.6c-0.5,0-0.9,0.1-1.3,0.4s-0.6,0.6-0.8,1.1h3.9
	c-0.1-0.4-0.3-0.8-0.6-1.1C71.2,26.7,70.7,26.6,70.3,26.6z M80.2,33.5c-0.9,0-1.7-0.2-2.4-0.6c-0.7-0.4-1.3-0.9-1.7-1.6
	c-0.4-0.7-0.6-1.5-0.6-2.3c0-0.9,0.2-1.6,0.6-2.4c0.4-0.7,1-1.3,1.7-1.7c0.7-0.4,1.5-0.6,2.4-0.6c0.5,0,1,0.1,1.5,0.3
	c0.5,0.2,1,0.4,1.4,0.7c0.4,0.3,0.8,0.6,1.1,1l-2,1.5c-0.2-0.3-0.4-0.5-0.8-0.7s-0.7-0.3-1.1-0.3s-0.8,0.1-1.1,0.3
	c-0.3,0.2-0.6,0.5-0.8,0.8c-0.2,0.4-0.3,0.7-0.3,1.2c0,0.4,0.1,0.8,0.3,1.1c0.2,0.3,0.5,0.6,0.8,0.8c0.3,0.2,0.7,0.3,1.1,0.3
	c0.3,0,0.7-0.1,1-0.3c0.4-0.2,0.6-0.4,0.8-0.7l2,1.4c-0.3,0.3-0.6,0.7-1,0.9c-0.4,0.3-0.9,0.5-1.4,0.7S80.7,33.5,80.2,33.5
	L80.2,33.5z M90.4,24.5c1.3,0,2.3,0.4,3,1.2c0.7,0.8,1,2,1,3.7v4.1h-2.7v-4.1c0-1.8-0.5-2.7-1.6-2.7s-1.7,0.7-1.7,2.2v4.5h-2.7V20.3
	h2.7v5.2C88.8,24.8,89.5,24.5,90.4,24.5L90.4,24.5z M100.8,24.5c1.3,0,2.3,0.4,3,1.2c0.7,0.8,1,2,1,3.7v4.1h-2.7v-4.1
	c0-1.8-0.5-2.7-1.6-2.7s-1.7,0.7-1.7,2.2v4.5h-2.7v-8.9h2.2l0.3,1.3c0.2-0.4,0.5-0.8,0.9-1C99.8,24.6,100.3,24.5,100.8,24.5z
	 M110.9,33.5c-0.9,0-1.7-0.2-2.5-0.6c-0.7-0.4-1.3-0.9-1.7-1.6c-0.4-0.7-0.6-1.5-0.6-2.4s0.2-1.7,0.6-2.4c0.4-0.7,1-1.2,1.7-1.6
	s1.5-0.6,2.5-0.6c0.9,0,1.7,0.2,2.5,0.6c0.7,0.4,1.3,0.9,1.7,1.6c0.4,0.7,0.6,1.5,0.6,2.4s-0.2,1.7-0.6,2.4s-1,1.2-1.7,1.6
	C112.6,33.3,111.8,33.5,110.9,33.5z M110.9,31.3c0.4,0,0.8-0.1,1.1-0.3c0.3-0.2,0.6-0.5,0.7-0.8c0.2-0.4,0.3-0.8,0.3-1.2
	c0-0.4-0.1-0.8-0.3-1.2c-0.2-0.4-0.4-0.6-0.7-0.8c-0.3-0.2-0.7-0.3-1.1-0.3s-0.7,0.1-1.1,0.3c-0.3,0.2-0.6,0.5-0.8,0.8
	s-0.3,0.8-0.3,1.2c0,0.4,0.1,0.8,0.3,1.2c0.2,0.4,0.4,0.6,0.8,0.8C110.1,31.2,110.5,31.3,110.9,31.3L110.9,31.3z M116.9,20.3h2.7
	v13.2h-2.7V20.3z M125.7,33.5c-0.9,0-1.7-0.2-2.5-0.6c-0.7-0.4-1.3-0.9-1.7-1.6c-0.4-0.7-0.6-1.5-0.6-2.4s0.2-1.7,0.6-2.4
	c0.4-0.7,1-1.2,1.7-1.6s1.5-0.6,2.5-0.6c0.9,0,1.7,0.2,2.5,0.6c0.7,0.4,1.3,0.9,1.7,1.6s0.6,1.5,0.6,2.4s-0.2,1.7-0.6,2.4
	c-0.4,0.7-1,1.2-1.7,1.6C127.4,33.3,126.6,33.5,125.7,33.5z M125.7,31.3c0.4,0,0.8-0.1,1.1-0.3c0.3-0.2,0.6-0.5,0.7-0.8
	c0.2-0.4,0.3-0.8,0.3-1.2c0-0.4-0.1-0.8-0.3-1.2c-0.2-0.4-0.4-0.6-0.7-0.8c-0.3-0.2-0.7-0.3-1.1-0.3c-0.4,0-0.7,0.1-1.1,0.3
	c-0.3,0.2-0.6,0.5-0.8,0.8c-0.2,0.4-0.3,0.8-0.3,1.2c0,0.4,0.1,0.8,0.3,1.2c0.2,0.4,0.4,0.6,0.8,0.8C125,31.2,125.3,31.3,125.7,31.3
	L125.7,31.3z M140.7,24.6v8.2c0,1.7-0.4,3-1.2,3.9c-0.8,0.9-2,1.4-3.7,1.4c-0.7,0-1.4-0.1-2.1-0.4c-0.7-0.3-1.3-0.6-1.9-1.2l1.4-2
	c0.4,0.4,0.8,0.6,1.2,0.8s0.9,0.3,1.4,0.3c0.8,0,1.4-0.3,1.8-0.8c0.4-0.5,0.5-1.2,0.5-2.1l0,0c-0.3,0.3-0.6,0.5-1,0.6
	c-0.4,0.2-0.8,0.2-1.2,0.2c-0.8,0-1.6-0.2-2.3-0.6c-0.7-0.4-1.2-0.9-1.6-1.6c-0.4-0.7-0.6-1.5-0.6-2.3c0-0.9,0.2-1.7,0.6-2.4
	c0.4-0.7,1-1.3,1.7-1.7c0.7-0.4,1.5-0.6,2.4-0.6c0.4,0,0.8,0.1,1.1,0.2c0.4,0.1,0.6,0.3,0.9,0.6l0.4-0.6L140.7,24.6L140.7,24.6z
	 M136.2,31.5c0.8,0,1.3-0.3,1.8-0.9v-3.2c-0.4-0.5-0.9-0.7-1.6-0.7c-0.4,0-0.8,0.1-1.2,0.3c-0.4,0.2-0.7,0.5-0.9,0.9
	c-0.2,0.4-0.3,0.8-0.3,1.2c0,0.4,0.1,0.8,0.3,1.2c0.2,0.4,0.5,0.7,0.8,0.9C135.5,31.3,135.9,31.5,136.2,31.5z M142.4,24.6h2.7v8.9
	h-2.7V24.6z M142.4,20.5h2.8v2.8h-2.8V20.5L142.4,20.5z M155.4,29.7h-6.5c0.1,0.6,0.4,1,0.8,1.3c0.4,0.3,0.9,0.5,1.5,0.5
	c0.4,0,0.7-0.1,1.1-0.2c0.4-0.2,0.6-0.4,0.9-0.6l1.6,1.4c-0.5,0.5-1,0.9-1.6,1.2s-1.3,0.4-2,0.4c-0.9,0-1.7-0.2-2.4-0.6
	c-0.7-0.4-1.3-1-1.7-1.7s-0.6-1.5-0.6-2.4s0.2-1.7,0.6-2.3c0.4-0.7,0.9-1.2,1.6-1.6s1.5-0.6,2.4-0.6s1.6,0.2,2.3,0.6
	c0.7,0.4,1.2,1,1.6,1.7c0.4,0.7,0.6,1.5,0.6,2.3L155.4,29.7L155.4,29.7z M151.1,26.6c-0.5,0-0.9,0.1-1.3,0.4
	c-0.4,0.3-0.6,0.6-0.8,1.1h3.9c-0.1-0.4-0.3-0.8-0.6-1.1C152,26.7,151.6,26.6,151.1,26.6z M160.1,33.5c-1.4,0-2.6-0.4-3.6-1.1l1-1.9
	c0.3,0.2,0.7,0.4,1.2,0.6c0.4,0.1,0.9,0.2,1.3,0.2c0.4,0,0.7,0,0.9-0.1c0.2-0.1,0.4-0.2,0.4-0.5c0-0.2-0.1-0.3-0.3-0.4
	c-0.2-0.1-0.6-0.3-1.1-0.5c-0.6-0.2-1.1-0.4-1.5-0.6s-0.7-0.4-1-0.8c-0.3-0.3-0.4-0.7-0.4-1.2c0-0.6,0.2-1.1,0.5-1.5
	c0.3-0.4,0.8-0.8,1.4-1c0.6-0.2,1.2-0.4,1.9-0.4c0.6,0,1.2,0.1,1.7,0.2c0.5,0.2,1.1,0.4,1.6,0.7l-0.9,1.8c-0.3-0.2-0.6-0.4-0.9-0.5
	c-0.3-0.1-0.7-0.1-1.1-0.1s-0.7,0.1-1,0.2c-0.3,0.1-0.4,0.3-0.4,0.6c0,0.1,0.1,0.2,0.2,0.3c0.1,0.1,0.3,0.2,0.5,0.2
	c0.2,0.1,0.4,0.2,0.8,0.3c0.6,0.2,1.1,0.4,1.5,0.5c0.4,0.2,0.7,0.4,1,0.8c0.3,0.3,0.4,0.8,0.4,1.3c0,0.6-0.2,1-0.5,1.4
	c-0.3,0.4-0.8,0.7-1.4,0.9C161.4,33.4,160.8,33.5,160.1,33.5L160.1,33.5z"/>
<path class="st0" d="M15.5,11.3c1.6,0,2.9,0.3,4,1c1.1,0.6,2,1.6,2.6,2.8s0.9,2.6,0.9,4.2v8.9h-4l-0.8-1.3c-0.6,0.5-1.2,0.8-1.9,1.1
	c-0.7,0.2-1.4,0.4-2.2,0.4c-1.2,0-2.2-0.2-3.2-0.6c-0.9-0.4-1.6-1-2.2-1.8c-0.5-0.8-0.8-1.8-0.8-2.9c0-1.3,0.4-2.4,1.1-3.2
	c0.7-0.8,1.7-1.5,3-1.9s2.7-0.6,4.3-0.6c0.5,0,1,0,1.4,0c-0.1-0.7-0.4-1.3-0.9-1.7s-1.2-0.6-2.1-0.6c-0.8,0-1.5,0.1-2.1,0.3
	c-0.7,0.2-1.3,0.6-1.8,1.1l-2-2.5C10.6,12.2,12.8,11.3,15.5,11.3z M12.9,23c0,0.6,0.2,1.1,0.6,1.4s0.9,0.5,1.5,0.5
	c0.5,0,1.1-0.1,1.6-0.4c0.5-0.2,1-0.5,1.3-0.9v-3.2c-0.4,0-0.9-0.1-1.5-0.1C14,20.4,12.9,21.3,12.9,23z"/>
<path class="st0" d="M33,2H0v34h45.3V11.3h-5V31H5V7h28V2z"/>
<path class="st0" d="M45.3,11.3H37l0,0h-4V5.1h-5.2v6.2h-3.2l0,0h-3.3c1.3,0.9,2.4,2.3,3.1,4.2h3.4v6.7c0,1.3,0.3,2.4,0.8,3.3
	s1.2,1.6,2.1,2.1c0.9,0.5,2,0.7,3.2,0.7c0.6,0,1.2,0,1.7-0.1s0.9-0.2,1.3-0.4v-4.3c-0.5,0.2-1.1,0.3-1.9,0.3c-0.6,0-1.1-0.2-1.5-0.7
	C33.2,22.6,33,21.9,33,21v-5.5h12.3C45.3,15.5,45.3,11.3,45.3,11.3z"/>
<path class="st1" d="M40.5,2L45,8.3h-9L40.5,2z"/>
</svg>
