<svg width="173" height="40" viewBox="0 0 173 40" fill="none" xmlns="http://www.w3.org/2000/svg">
<path d="M66.5998 13.4996H60.6998L59.5998 16.2996H56.7998L61.8998 3.79961H65.3998L70.4998 16.3996H67.6998L66.5998 13.4996ZM65.6998 11.2996L63.6998 6.29961L61.6998 11.2996H65.6998ZM79.5998 7.39961L75.9998 16.2996H73.1998L69.5998 7.39961H72.2998L74.5998 13.2996L76.8998 7.39961H79.5998ZM84.0998 7.39961C84.8998 7.39961 85.6998 7.59961 86.2998 7.89961C86.8998 8.19961 87.3998 8.69961 87.6998 9.39961C87.9998 9.99961 88.1998 10.7996 88.1998 11.6996V16.3996H85.9998L85.5998 15.6996C85.2998 15.9996 84.9998 16.0996 84.5998 16.2996C84.1998 16.3996 83.7998 16.4996 83.3998 16.4996C82.7998 16.4996 82.1998 16.3996 81.6998 16.1996C81.1998 15.9996 80.7998 15.6996 80.4998 15.1996C80.1998 14.7996 80.0998 14.2996 80.0998 13.6996C80.0998 12.9996 80.2998 12.3996 80.6998 11.9996C81.0998 11.4996 81.5998 11.1996 82.2998 10.9996C82.9998 10.7996 83.7998 10.6996 84.5998 10.6996C84.8998 10.6996 85.0998 10.6996 85.3998 10.6996C85.2998 10.2996 85.1998 9.99961 84.8998 9.79961C84.5998 9.59961 84.2998 9.49961 83.7998 9.49961C83.3998 9.49961 82.9998 9.59961 82.5998 9.69961C82.1998 9.79961 81.8998 9.99961 81.5998 10.2996L80.4998 8.99961C81.4998 7.79961 82.6998 7.39961 84.0998 7.39961ZM82.7998 13.5996C82.7998 13.8996 82.8998 14.1996 83.0998 14.3996C83.2998 14.5996 83.5998 14.6996 83.8998 14.6996C84.1998 14.6996 84.4998 14.5996 84.7998 14.4996C85.0998 14.3996 85.2998 14.1996 85.4998 13.9996V12.2996C85.2998 12.2996 84.9998 12.2996 84.6998 12.2996C83.3998 12.1996 82.7998 12.6996 82.7998 13.5996ZM89.8998 3.09961H92.5998V16.2996H89.8998V3.09961ZM98.5998 16.3996C97.6998 16.3996 96.8998 16.1996 96.0998 15.7996C95.3998 15.3996 94.7998 14.8996 94.3998 14.1996C93.9998 13.4996 93.7998 12.6996 93.7998 11.7996C93.7998 10.8996 93.9998 10.0996 94.3998 9.39961C94.7998 8.69961 95.3998 8.19961 96.0998 7.79961C96.7998 7.39961 97.5998 7.19961 98.5998 7.19961C99.4998 7.19961 100.3 7.39961 101.1 7.79961C101.8 8.19961 102.4 8.69961 102.8 9.39961C103.2 10.0996 103.4 10.8996 103.4 11.7996C103.4 12.6996 103.2 13.4996 102.8 14.1996C102.4 14.8996 101.8 15.3996 101.1 15.7996C100.4 16.1996 99.5998 16.3996 98.5998 16.3996ZM98.5998 14.1996C98.9998 14.1996 99.3998 14.0996 99.6998 13.8996C99.9998 13.6996 100.3 13.3996 100.4 13.0996C100.6 12.6996 100.7 12.2996 100.7 11.8996C100.7 11.4996 100.6 11.0996 100.4 10.6996C100.2 10.2996 99.9998 10.0996 99.6998 9.89961C99.3998 9.69961 98.9998 9.59961 98.5998 9.59961C98.1998 9.59961 97.8998 9.69961 97.4998 9.89961C97.1998 10.0996 96.8998 10.3996 96.6998 10.6996C96.4998 11.0996 96.3998 11.4996 96.3998 11.8996C96.3998 12.2996 96.4998 12.6996 96.6998 13.0996C96.8998 13.4996 97.0998 13.6996 97.4998 13.8996C97.8998 14.0996 98.1998 14.1996 98.5998 14.1996ZM109.5 7.39961C110.8 7.39961 111.8 7.79961 112.5 8.59961C113.2 9.39961 113.5 10.5996 113.5 12.2996V16.3996H110.8V12.2996C110.8 10.4996 110.3 9.59961 109.2 9.59961C108.1 9.59961 107.5 10.2996 107.5 11.7996V16.2996H104.8V7.49961H107L107.3 8.79961C107.5 8.39961 107.8 7.99961 108.2 7.79961C108.4 7.49961 108.9 7.39961 109.5 7.39961ZM66.5998 23.0996H63.0998V33.3996H60.3998V23.0996H56.8998V20.7996H66.6998V23.0996H66.5998ZM74.5998 29.6996H68.0998C68.1998 30.2996 68.4998 30.6996 68.8998 30.9996C69.2998 31.2996 69.7998 31.4996 70.3998 31.4996C70.7998 31.4996 71.0998 31.3996 71.4998 31.2996C71.8998 31.0996 72.0998 30.8996 72.3998 30.6996L73.9998 32.0996C73.4998 32.5996 72.9998 32.9996 72.3998 33.2996C71.7998 33.5996 71.0998 33.6996 70.3998 33.6996C69.4998 33.6996 68.6998 33.4996 67.9998 33.0996C67.2998 32.6996 66.6998 32.0996 66.2998 31.3996C65.8998 30.6996 65.6998 29.8996 65.6998 28.9996C65.6998 28.0996 65.8998 27.2996 66.2998 26.6996C66.6998 25.9996 67.1998 25.4996 67.8998 25.0996C68.5998 24.6996 69.3998 24.4996 70.2998 24.4996C71.1998 24.4996 71.8998 24.6996 72.5998 25.0996C73.2998 25.4996 73.7998 26.0996 74.1998 26.7996C74.5998 27.4996 74.7998 28.2996 74.7998 29.0996V29.6996H74.5998ZM70.2998 26.5996C69.7998 26.5996 69.3998 26.6996 68.9998 26.9996C68.5998 27.2996 68.3998 27.5996 68.1998 28.0996H72.0998C71.9998 27.6996 71.7998 27.2996 71.4998 26.9996C71.1998 26.6996 70.6998 26.5996 70.2998 26.5996ZM80.1998 33.4996C79.2998 33.4996 78.4998 33.2996 77.7998 32.8996C77.0998 32.4996 76.4998 31.9996 76.0998 31.2996C75.6998 30.5996 75.4998 29.7996 75.4998 28.9996C75.4998 28.0996 75.6998 27.3996 76.0998 26.5996C76.4998 25.8996 77.0998 25.2996 77.7998 24.8996C78.4998 24.4996 79.2998 24.2996 80.1998 24.2996C80.6998 24.2996 81.1998 24.3996 81.6998 24.5996C82.1998 24.7996 82.6998 24.9996 83.0998 25.2996C83.4998 25.5996 83.8998 25.8996 84.1998 26.2996L82.1998 27.7996C81.9998 27.4996 81.7998 27.2996 81.3998 27.0996C80.9998 26.8996 80.6998 26.7996 80.2998 26.7996C79.8998 26.7996 79.4998 26.8996 79.1998 27.0996C78.8998 27.2996 78.5998 27.5996 78.3998 27.8996C78.1998 28.2996 78.0998 28.5996 78.0998 29.0996C78.0998 29.4996 78.1998 29.8996 78.3998 30.1996C78.5998 30.4996 78.8998 30.7996 79.1998 30.9996C79.4998 31.1996 79.8998 31.2996 80.2998 31.2996C80.5998 31.2996 80.9998 31.1996 81.2998 30.9996C81.6998 30.7996 81.8998 30.5996 82.0998 30.2996L84.0998 31.6996C83.7998 31.9996 83.4998 32.3996 83.0998 32.5996C82.6998 32.8996 82.1998 33.0996 81.6998 33.2996C81.1998 33.4996 80.6998 33.4996 80.1998 33.4996ZM90.3998 24.4996C91.6998 24.4996 92.6998 24.8996 93.3998 25.6996C94.0998 26.4996 94.3998 27.6996 94.3998 29.3996V33.4996H91.6998V29.3996C91.6998 27.5996 91.1998 26.6996 90.0998 26.6996C88.9998 26.6996 88.3998 27.3996 88.3998 28.8996V33.3996H85.6998V20.2996H88.3998V25.4996C88.7998 24.7996 89.4998 24.4996 90.3998 24.4996ZM100.8 24.4996C102.1 24.4996 103.1 24.8996 103.8 25.6996C104.5 26.4996 104.8 27.6996 104.8 29.3996V33.4996H102.1V29.3996C102.1 27.5996 101.6 26.6996 100.5 26.6996C99.3998 26.6996 98.7998 27.3996 98.7998 28.8996V33.3996H96.0998V24.4996H98.2998L98.5998 25.7996C98.7998 25.3996 99.0998 24.9996 99.4998 24.7996C99.7998 24.5996 100.3 24.4996 100.8 24.4996ZM110.9 33.4996C110 33.4996 109.2 33.2996 108.4 32.8996C107.7 32.4996 107.1 31.9996 106.7 31.2996C106.3 30.5996 106.1 29.7996 106.1 28.8996C106.1 27.9996 106.3 27.1996 106.7 26.4996C107.1 25.7996 107.7 25.2996 108.4 24.8996C109.1 24.4996 109.9 24.2996 110.9 24.2996C111.8 24.2996 112.6 24.4996 113.4 24.8996C114.1 25.2996 114.7 25.7996 115.1 26.4996C115.5 27.1996 115.7 27.9996 115.7 28.8996C115.7 29.7996 115.5 30.5996 115.1 31.2996C114.7 31.9996 114.1 32.4996 113.4 32.8996C112.6 33.2996 111.8 33.4996 110.9 33.4996ZM110.9 31.2996C111.3 31.2996 111.7 31.1996 112 30.9996C112.3 30.7996 112.6 30.4996 112.7 30.1996C112.9 29.7996 113 29.3996 113 28.9996C113 28.5996 112.9 28.1996 112.7 27.7996C112.5 27.3996 112.3 27.1996 112 26.9996C111.7 26.7996 111.3 26.6996 110.9 26.6996C110.5 26.6996 110.2 26.7996 109.8 26.9996C109.5 27.1996 109.2 27.4996 109 27.7996C108.8 28.0996 108.7 28.5996 108.7 28.9996C108.7 29.3996 108.8 29.7996 109 30.1996C109.2 30.5996 109.4 30.7996 109.8 30.9996C110.1 31.1996 110.5 31.2996 110.9 31.2996ZM116.9 20.2996H119.6V33.4996H116.9V20.2996ZM125.7 33.4996C124.8 33.4996 124 33.2996 123.2 32.8996C122.5 32.4996 121.9 31.9996 121.5 31.2996C121.1 30.5996 120.9 29.7996 120.9 28.8996C120.9 27.9996 121.1 27.1996 121.5 26.4996C121.9 25.7996 122.5 25.2996 123.2 24.8996C123.9 24.4996 124.7 24.2996 125.7 24.2996C126.6 24.2996 127.4 24.4996 128.2 24.8996C128.9 25.2996 129.5 25.7996 129.9 26.4996C130.3 27.1996 130.5 27.9996 130.5 28.8996C130.5 29.7996 130.3 30.5996 129.9 31.2996C129.5 31.9996 128.9 32.4996 128.2 32.8996C127.4 33.2996 126.6 33.4996 125.7 33.4996ZM125.7 31.2996C126.1 31.2996 126.5 31.1996 126.8 30.9996C127.1 30.7996 127.4 30.4996 127.5 30.1996C127.7 29.7996 127.8 29.3996 127.8 28.9996C127.8 28.5996 127.7 28.1996 127.5 27.7996C127.3 27.3996 127.1 27.1996 126.8 26.9996C126.5 26.7996 126.1 26.6996 125.7 26.6996C125.3 26.6996 125 26.7996 124.6 26.9996C124.3 27.1996 124 27.4996 123.8 27.7996C123.6 28.1996 123.5 28.5996 123.5 28.9996C123.5 29.3996 123.6 29.7996 123.8 30.1996C124 30.5996 124.2 30.7996 124.6 30.9996C125 31.1996 125.3 31.2996 125.7 31.2996ZM140.7 24.5996V32.7996C140.7 34.4996 140.3 35.7996 139.5 36.6996C138.7 37.5996 137.5 38.0996 135.8 38.0996C135.1 38.0996 134.4 37.9996 133.7 37.6996C133 37.3996 132.4 37.0996 131.8 36.4996L133.2 34.4996C133.6 34.8996 134 35.0996 134.4 35.2996C134.8 35.4996 135.3 35.5996 135.8 35.5996C136.6 35.5996 137.2 35.2996 137.6 34.7996C138 34.2996 138.1 33.5996 138.1 32.6996C137.8 32.9996 137.5 33.1996 137.1 33.2996C136.7 33.4996 136.3 33.4996 135.9 33.4996C135.1 33.4996 134.3 33.2996 133.6 32.8996C132.9 32.4996 132.4 31.9996 132 31.2996C131.6 30.5996 131.4 29.7996 131.4 28.9996C131.4 28.0996 131.6 27.2996 132 26.5996C132.4 25.8996 133 25.2996 133.7 24.8996C134.4 24.4996 135.2 24.2996 136.1 24.2996C136.5 24.2996 136.9 24.3996 137.2 24.4996C137.6 24.5996 137.8 24.7996 138.1 25.0996L138.5 24.4996L140.7 24.5996ZM136.2 31.4996C137 31.4996 137.5 31.1996 138 30.5996V27.3996C137.6 26.8996 137.1 26.6996 136.4 26.6996C136 26.6996 135.6 26.7996 135.2 26.9996C134.8 27.1996 134.5 27.4996 134.3 27.8996C134.1 28.2996 134 28.6996 134 29.0996C134 29.4996 134.1 29.8996 134.3 30.2996C134.5 30.6996 134.8 30.9996 135.1 31.1996C135.5 31.2996 135.9 31.4996 136.2 31.4996ZM142.4 24.5996H145.1V33.4996H142.4V24.5996ZM142.4 20.4996H145.2V23.2996H142.4V20.4996ZM155.4 29.6996H148.9C149 30.2996 149.3 30.6996 149.7 30.9996C150.1 31.2996 150.6 31.4996 151.2 31.4996C151.6 31.4996 151.9 31.3996 152.3 31.2996C152.7 31.0996 152.9 30.8996 153.2 30.6996L154.8 32.0996C154.3 32.5996 153.8 32.9996 153.2 33.2996C152.6 33.5996 151.9 33.6996 151.2 33.6996C150.3 33.6996 149.5 33.4996 148.8 33.0996C148.1 32.6996 147.5 32.0996 147.1 31.3996C146.7 30.6996 146.5 29.8996 146.5 28.9996C146.5 28.0996 146.7 27.2996 147.1 26.6996C147.5 25.9996 148 25.4996 148.7 25.0996C149.4 24.6996 150.2 24.4996 151.1 24.4996C152 24.4996 152.7 24.6996 153.4 25.0996C154.1 25.4996 154.6 26.0996 155 26.7996C155.4 27.4996 155.6 28.2996 155.6 29.0996L155.4 29.6996ZM151.1 26.5996C150.6 26.5996 150.2 26.6996 149.8 26.9996C149.4 27.2996 149.2 27.5996 149 28.0996H152.9C152.8 27.6996 152.6 27.2996 152.3 26.9996C152 26.6996 151.6 26.5996 151.1 26.5996ZM160.1 33.4996C158.7 33.4996 157.5 33.0996 156.5 32.3996L157.5 30.4996C157.8 30.6996 158.2 30.8996 158.7 31.0996C159.1 31.1996 159.6 31.2996 160 31.2996C160.4 31.2996 160.7 31.2996 160.9 31.1996C161.1 31.0996 161.3 30.9996 161.3 30.6996C161.3 30.4996 161.2 30.3996 161 30.2996C160.8 30.1996 160.4 29.9996 159.9 29.7996C159.3 29.5996 158.8 29.3996 158.4 29.1996C158 28.9996 157.7 28.7996 157.4 28.3996C157.1 28.0996 157 27.6996 157 27.1996C157 26.5996 157.2 26.0996 157.5 25.6996C157.8 25.2996 158.3 24.8996 158.9 24.6996C159.5 24.4996 160.1 24.2996 160.8 24.2996C161.4 24.2996 162 24.3996 162.5 24.4996C163 24.6996 163.6 24.8996 164.1 25.1996L163.2 26.9996C162.9 26.7996 162.6 26.5996 162.3 26.4996C162 26.3996 161.6 26.3996 161.2 26.3996C160.8 26.3996 160.5 26.4996 160.2 26.5996C159.9 26.6996 159.8 26.8996 159.8 27.1996C159.8 27.2996 159.9 27.3996 160 27.4996C160.1 27.5996 160.3 27.6996 160.5 27.6996C160.7 27.7996 160.9 27.8996 161.3 27.9996C161.9 28.1996 162.4 28.3996 162.8 28.4996C163.2 28.6996 163.5 28.8996 163.8 29.2996C164.1 29.5996 164.2 30.0996 164.2 30.5996C164.2 31.1996 164 31.5996 163.7 31.9996C163.4 32.3996 162.9 32.6996 162.3 32.8996C161.4 33.3996 160.8 33.4996 160.1 33.4996Z" fill="white"/>
<path d="M15.4999 11.2998C17.0999 11.2998 18.3999 11.5998 19.4999 12.2998C20.5999 12.8998 21.4999 13.8998 22.0999 15.0998C22.6999 16.2998 22.9999 17.6998 22.9999 19.2998V28.1998H18.9999L18.1999 26.8998C17.5999 27.3998 16.9999 27.6998 16.2999 27.9998C15.5999 28.1998 14.8999 28.3998 14.0999 28.3998C12.8999 28.3998 11.8999 28.1998 10.8999 27.7998C9.9999 27.3998 9.2999 26.7998 8.6999 25.9998C8.1999 25.1998 7.8999 24.1998 7.8999 23.0998C7.8999 21.7998 8.2999 20.6998 8.9999 19.8998C9.6999 19.0998 10.6999 18.3998 11.9999 17.9998C13.2999 17.5998 14.6999 17.3998 16.2999 17.3998C16.7999 17.3998 17.2999 17.3998 17.6999 17.3998C17.5999 16.6998 17.2999 16.0998 16.7999 15.6998C16.2999 15.2998 15.5999 15.0998 14.6999 15.0998C13.8999 15.0998 13.1999 15.1998 12.5999 15.3998C11.8999 15.5998 11.2999 15.9998 10.7999 16.4998L8.7999 13.9998C10.5999 12.1998 12.7999 11.2998 15.4999 11.2998ZM12.8999 22.9998C12.8999 23.5998 13.0999 24.0998 13.4999 24.3998C13.8999 24.6998 14.3999 24.8998 14.9999 24.8998C15.4999 24.8998 16.0999 24.7998 16.5999 24.4998C17.0999 24.2998 17.5999 23.9998 17.8999 23.5998V20.3998C17.4999 20.3998 16.9999 20.2998 16.3999 20.2998C13.9999 20.3998 12.8999 21.2998 12.8999 22.9998Z" fill="white"/>
<path d="M33 2H0V36H45.3V11.3H40.3V31H5V7H33V2Z" fill="white"/>
<path d="M45.2998 11.2996H36.9998H32.9998V5.09961H27.7998V11.2996H24.5998H21.2998C22.5998 12.1996 23.6998 13.5996 24.3998 15.4996H27.7998V22.1996C27.7998 23.4996 28.0998 24.5996 28.5998 25.4996C29.0998 26.3996 29.7998 27.0996 30.6998 27.5996C31.5998 28.0996 32.6998 28.2996 33.8998 28.2996C34.4998 28.2996 35.0998 28.2996 35.5998 28.1996C36.0998 28.0996 36.4998 27.9996 36.8998 27.7996V23.4996C36.3998 23.6996 35.7998 23.7996 34.9998 23.7996C34.3998 23.7996 33.8998 23.5996 33.4998 23.0996C33.1998 22.5996 32.9998 21.8996 32.9998 20.9996V15.4996H45.2998V11.2996Z" fill="white"/>
<path d="M40.5 2L45 8.3H36L40.5 2Z" fill="#FFCA10"/>
</svg>
