<svg width="173" height="40" viewBox="0 0 173 40" fill="none" xmlns="http://www.w3.org/2000/svg">
<path d="M66.5998 13.5H60.6998L59.5998 16.3H56.7998L61.8998 3.79998H65.3998L70.4998 16.4H67.6998L66.5998 13.5ZM65.6998 11.3L63.6998 6.29998L61.6998 11.3H65.6998ZM79.5998 7.39998L75.9998 16.3H73.1998L69.5998 7.39998H72.2998L74.5998 13.3L76.8998 7.39998H79.5998ZM84.0998 7.39998C84.8998 7.39998 85.6998 7.59998 86.2998 7.89998C86.8998 8.19998 87.3998 8.69998 87.6998 9.39998C87.9998 9.99998 88.1998 10.8 88.1998 11.7V16.4H85.9998L85.5998 15.7C85.2998 16 84.9998 16.1 84.5998 16.3C84.1998 16.4 83.7998 16.5 83.3998 16.5C82.7998 16.5 82.1998 16.4 81.6998 16.2C81.1998 16 80.7998 15.7 80.4998 15.2C80.1998 14.8 80.0998 14.3 80.0998 13.7C80.0998 13 80.2998 12.4 80.6998 12C81.0998 11.5 81.5998 11.2 82.2998 11C82.9998 10.8 83.7998 10.7 84.5998 10.7C84.8998 10.7 85.0998 10.7 85.3998 10.7C85.2998 10.3 85.1998 9.99998 84.8998 9.79998C84.5998 9.59998 84.2998 9.49998 83.7998 9.49998C83.3998 9.49998 82.9998 9.59998 82.5998 9.69998C82.1998 9.79998 81.8998 9.99998 81.5998 10.3L80.4998 8.99998C81.4998 7.79998 82.6998 7.39998 84.0998 7.39998ZM82.7998 13.6C82.7998 13.9 82.8998 14.2 83.0998 14.4C83.2998 14.6 83.5998 14.7 83.8998 14.7C84.1998 14.7 84.4998 14.6 84.7998 14.5C85.0998 14.4 85.2998 14.2 85.4998 14V12.3C85.2998 12.3 84.9998 12.3 84.6998 12.3C83.3998 12.2 82.7998 12.7 82.7998 13.6ZM89.8998 3.09998H92.5998V16.3H89.8998V3.09998ZM98.5998 16.4C97.6998 16.4 96.8998 16.2 96.0998 15.8C95.3998 15.4 94.7998 14.9 94.3998 14.2C93.9998 13.5 93.7998 12.7 93.7998 11.8C93.7998 10.9 93.9998 10.1 94.3998 9.39998C94.7998 8.69998 95.3998 8.19998 96.0998 7.79998C96.7998 7.39998 97.5998 7.19998 98.5998 7.19998C99.4998 7.19998 100.3 7.39998 101.1 7.79998C101.8 8.19998 102.4 8.69998 102.8 9.39998C103.2 10.1 103.4 10.9 103.4 11.8C103.4 12.7 103.2 13.5 102.8 14.2C102.4 14.9 101.8 15.4 101.1 15.8C100.4 16.2 99.5998 16.4 98.5998 16.4ZM98.5998 14.2C98.9998 14.2 99.3998 14.1 99.6998 13.9C99.9998 13.7 100.3 13.4 100.4 13.1C100.6 12.7 100.7 12.3 100.7 11.9C100.7 11.5 100.6 11.1 100.4 10.7C100.2 10.3 99.9998 10.1 99.6998 9.89998C99.3998 9.69998 98.9998 9.59998 98.5998 9.59998C98.1998 9.59998 97.8998 9.69998 97.4998 9.89998C97.1998 10.1 96.8998 10.4 96.6998 10.7C96.4998 11.1 96.3998 11.5 96.3998 11.9C96.3998 12.3 96.4998 12.7 96.6998 13.1C96.8998 13.5 97.0998 13.7 97.4998 13.9C97.8998 14.1 98.1998 14.2 98.5998 14.2ZM109.5 7.39998C110.8 7.39998 111.8 7.79998 112.5 8.59998C113.2 9.39998 113.5 10.6 113.5 12.3V16.4H110.8V12.3C110.8 10.5 110.3 9.59998 109.2 9.59998C108.1 9.59998 107.5 10.3 107.5 11.8V16.3H104.8V7.49998H107L107.3 8.79998C107.5 8.39998 107.8 7.99998 108.2 7.79998C108.4 7.49998 108.9 7.39998 109.5 7.39998ZM66.5998 23.1H63.0998V33.4H60.3998V23.1H56.8998V20.8H66.6998V23.1H66.5998ZM74.5998 29.7H68.0998C68.1998 30.3 68.4998 30.7 68.8998 31C69.2998 31.3 69.7998 31.5 70.3998 31.5C70.7998 31.5 71.0998 31.4 71.4998 31.3C71.8998 31.1 72.0998 30.9 72.3998 30.7L73.9998 32.1C73.4998 32.6 72.9998 33 72.3998 33.3C71.7998 33.6 71.0998 33.7 70.3998 33.7C69.4998 33.7 68.6998 33.5 67.9998 33.1C67.2998 32.7 66.6998 32.1 66.2998 31.4C65.8998 30.7 65.6998 29.9 65.6998 29C65.6998 28.1 65.8998 27.3 66.2998 26.7C66.6998 26 67.1998 25.5 67.8998 25.1C68.5998 24.7 69.3998 24.5 70.2998 24.5C71.1998 24.5 71.8998 24.7 72.5998 25.1C73.2998 25.5 73.7998 26.1 74.1998 26.8C74.5998 27.5 74.7998 28.3 74.7998 29.1V29.7H74.5998ZM70.2998 26.6C69.7998 26.6 69.3998 26.7 68.9998 27C68.5998 27.3 68.3998 27.6 68.1998 28.1H72.0998C71.9998 27.7 71.7998 27.3 71.4998 27C71.1998 26.7 70.6998 26.6 70.2998 26.6ZM80.1998 33.5C79.2998 33.5 78.4998 33.3 77.7998 32.9C77.0998 32.5 76.4998 32 76.0998 31.3C75.6998 30.6 75.4998 29.8 75.4998 29C75.4998 28.1 75.6998 27.4 76.0998 26.6C76.4998 25.9 77.0998 25.3 77.7998 24.9C78.4998 24.5 79.2998 24.3 80.1998 24.3C80.6998 24.3 81.1998 24.4 81.6998 24.6C82.1998 24.8 82.6998 25 83.0998 25.3C83.4998 25.6 83.8998 25.9 84.1998 26.3L82.1998 27.8C81.9998 27.5 81.7998 27.3 81.3998 27.1C80.9998 26.9 80.6998 26.8 80.2998 26.8C79.8998 26.8 79.4998 26.9 79.1998 27.1C78.8998 27.3 78.5998 27.6 78.3998 27.9C78.1998 28.3 78.0998 28.6 78.0998 29.1C78.0998 29.5 78.1998 29.9 78.3998 30.2C78.5998 30.5 78.8998 30.8 79.1998 31C79.4998 31.2 79.8998 31.3 80.2998 31.3C80.5998 31.3 80.9998 31.2 81.2998 31C81.6998 30.8 81.8998 30.6 82.0998 30.3L84.0998 31.7C83.7998 32 83.4998 32.4 83.0998 32.6C82.6998 32.9 82.1998 33.1 81.6998 33.3C81.1998 33.5 80.6998 33.5 80.1998 33.5ZM90.3998 24.5C91.6998 24.5 92.6998 24.9 93.3998 25.7C94.0998 26.5 94.3998 27.7 94.3998 29.4V33.5H91.6998V29.4C91.6998 27.6 91.1998 26.7 90.0998 26.7C88.9998 26.7 88.3998 27.4 88.3998 28.9V33.4H85.6998V20.3H88.3998V25.5C88.7998 24.8 89.4998 24.5 90.3998 24.5ZM100.8 24.5C102.1 24.5 103.1 24.9 103.8 25.7C104.5 26.5 104.8 27.7 104.8 29.4V33.5H102.1V29.4C102.1 27.6 101.6 26.7 100.5 26.7C99.3998 26.7 98.7998 27.4 98.7998 28.9V33.4H96.0998V24.5H98.2998L98.5998 25.8C98.7998 25.4 99.0998 25 99.4998 24.8C99.7998 24.6 100.3 24.5 100.8 24.5ZM110.9 33.5C110 33.5 109.2 33.3 108.4 32.9C107.7 32.5 107.1 32 106.7 31.3C106.3 30.6 106.1 29.8 106.1 28.9C106.1 28 106.3 27.2 106.7 26.5C107.1 25.8 107.7 25.3 108.4 24.9C109.1 24.5 109.9 24.3 110.9 24.3C111.8 24.3 112.6 24.5 113.4 24.9C114.1 25.3 114.7 25.8 115.1 26.5C115.5 27.2 115.7 28 115.7 28.9C115.7 29.8 115.5 30.6 115.1 31.3C114.7 32 114.1 32.5 113.4 32.9C112.6 33.3 111.8 33.5 110.9 33.5ZM110.9 31.3C111.3 31.3 111.7 31.2 112 31C112.3 30.8 112.6 30.5 112.7 30.2C112.9 29.8 113 29.4 113 29C113 28.6 112.9 28.2 112.7 27.8C112.5 27.4 112.3 27.2 112 27C111.7 26.8 111.3 26.7 110.9 26.7C110.5 26.7 110.2 26.8 109.8 27C109.5 27.2 109.2 27.5 109 27.8C108.8 28.1 108.7 28.6 108.7 29C108.7 29.4 108.8 29.8 109 30.2C109.2 30.6 109.4 30.8 109.8 31C110.1 31.2 110.5 31.3 110.9 31.3ZM116.9 20.3H119.6V33.5H116.9V20.3ZM125.7 33.5C124.8 33.5 124 33.3 123.2 32.9C122.5 32.5 121.9 32 121.5 31.3C121.1 30.6 120.9 29.8 120.9 28.9C120.9 28 121.1 27.2 121.5 26.5C121.9 25.8 122.5 25.3 123.2 24.9C123.9 24.5 124.7 24.3 125.7 24.3C126.6 24.3 127.4 24.5 128.2 24.9C128.9 25.3 129.5 25.8 129.9 26.5C130.3 27.2 130.5 28 130.5 28.9C130.5 29.8 130.3 30.6 129.9 31.3C129.5 32 128.9 32.5 128.2 32.9C127.4 33.3 126.6 33.5 125.7 33.5ZM125.7 31.3C126.1 31.3 126.5 31.2 126.8 31C127.1 30.8 127.4 30.5 127.5 30.2C127.7 29.8 127.8 29.4 127.8 29C127.8 28.6 127.7 28.2 127.5 27.8C127.3 27.4 127.1 27.2 126.8 27C126.5 26.8 126.1 26.7 125.7 26.7C125.3 26.7 125 26.8 124.6 27C124.3 27.2 124 27.5 123.8 27.8C123.6 28.2 123.5 28.6 123.5 29C123.5 29.4 123.6 29.8 123.8 30.2C124 30.6 124.2 30.8 124.6 31C125 31.2 125.3 31.3 125.7 31.3ZM140.7 24.6V32.8C140.7 34.5 140.3 35.8 139.5 36.7C138.7 37.6 137.5 38.1 135.8 38.1C135.1 38.1 134.4 38 133.7 37.7C133 37.4 132.4 37.1 131.8 36.5L133.2 34.5C133.6 34.9 134 35.1 134.4 35.3C134.8 35.5 135.3 35.6 135.8 35.6C136.6 35.6 137.2 35.3 137.6 34.8C138 34.3 138.1 33.6 138.1 32.7C137.8 33 137.5 33.2 137.1 33.3C136.7 33.5 136.3 33.5 135.9 33.5C135.1 33.5 134.3 33.3 133.6 32.9C132.9 32.5 132.4 32 132 31.3C131.6 30.6 131.4 29.8 131.4 29C131.4 28.1 131.6 27.3 132 26.6C132.4 25.9 133 25.3 133.7 24.9C134.4 24.5 135.2 24.3 136.1 24.3C136.5 24.3 136.9 24.4 137.2 24.5C137.6 24.6 137.8 24.8 138.1 25.1L138.5 24.5L140.7 24.6ZM136.2 31.5C137 31.5 137.5 31.2 138 30.6V27.4C137.6 26.9 137.1 26.7 136.4 26.7C136 26.7 135.6 26.8 135.2 27C134.8 27.2 134.5 27.5 134.3 27.9C134.1 28.3 134 28.7 134 29.1C134 29.5 134.1 29.9 134.3 30.3C134.5 30.7 134.8 31 135.1 31.2C135.5 31.3 135.9 31.5 136.2 31.5ZM142.4 24.6H145.1V33.5H142.4V24.6ZM142.4 20.5H145.2V23.3H142.4V20.5ZM155.4 29.7H148.9C149 30.3 149.3 30.7 149.7 31C150.1 31.3 150.6 31.5 151.2 31.5C151.6 31.5 151.9 31.4 152.3 31.3C152.7 31.1 152.9 30.9 153.2 30.7L154.8 32.1C154.3 32.6 153.8 33 153.2 33.3C152.6 33.6 151.9 33.7 151.2 33.7C150.3 33.7 149.5 33.5 148.8 33.1C148.1 32.7 147.5 32.1 147.1 31.4C146.7 30.7 146.5 29.9 146.5 29C146.5 28.1 146.7 27.3 147.1 26.7C147.5 26 148 25.5 148.7 25.1C149.4 24.7 150.2 24.5 151.1 24.5C152 24.5 152.7 24.7 153.4 25.1C154.1 25.5 154.6 26.1 155 26.8C155.4 27.5 155.6 28.3 155.6 29.1L155.4 29.7ZM151.1 26.6C150.6 26.6 150.2 26.7 149.8 27C149.4 27.3 149.2 27.6 149 28.1H152.9C152.8 27.7 152.6 27.3 152.3 27C152 26.7 151.6 26.6 151.1 26.6ZM160.1 33.5C158.7 33.5 157.5 33.1 156.5 32.4L157.5 30.5C157.8 30.7 158.2 30.9 158.7 31.1C159.1 31.2 159.6 31.3 160 31.3C160.4 31.3 160.7 31.3 160.9 31.2C161.1 31.1 161.3 31 161.3 30.7C161.3 30.5 161.2 30.4 161 30.3C160.8 30.2 160.4 30 159.9 29.8C159.3 29.6 158.8 29.4 158.4 29.2C158 29 157.7 28.8 157.4 28.4C157.1 28.1 157 27.7 157 27.2C157 26.6 157.2 26.1 157.5 25.7C157.8 25.3 158.3 24.9 158.9 24.7C159.5 24.5 160.1 24.3 160.8 24.3C161.4 24.3 162 24.4 162.5 24.5C163 24.7 163.6 24.9 164.1 25.2L163.2 27C162.9 26.8 162.6 26.6 162.3 26.5C162 26.4 161.6 26.4 161.2 26.4C160.8 26.4 160.5 26.5 160.2 26.6C159.9 26.7 159.8 26.9 159.8 27.2C159.8 27.3 159.9 27.4 160 27.5C160.1 27.6 160.3 27.7 160.5 27.7C160.7 27.8 160.9 27.9 161.3 28C161.9 28.2 162.4 28.4 162.8 28.5C163.2 28.7 163.5 28.9 163.8 29.3C164.1 29.6 164.2 30.1 164.2 30.6C164.2 31.2 164 31.6 163.7 32C163.4 32.4 162.9 32.7 162.3 32.9C161.4 33.4 160.8 33.5 160.1 33.5Z" fill="white"/>
<path d="M15.4999 11.3C17.0999 11.3 18.3999 11.6 19.4999 12.3C20.5999 12.9 21.4999 13.9 22.0999 15.1C22.6999 16.3 22.9999 17.7 22.9999 19.3V28.2H18.9999L18.1999 26.9C17.5999 27.4 16.9999 27.7 16.2999 28C15.5999 28.2 14.8999 28.4 14.0999 28.4C12.8999 28.4 11.8999 28.2 10.8999 27.8C9.9999 27.4 9.2999 26.8 8.6999 26C8.1999 25.2 7.8999 24.2 7.8999 23.1C7.8999 21.8 8.2999 20.7 8.9999 19.9C9.6999 19.1 10.6999 18.4 11.9999 18C13.2999 17.6 14.6999 17.4 16.2999 17.4C16.7999 17.4 17.2999 17.4 17.6999 17.4C17.5999 16.7 17.2999 16.1 16.7999 15.7C16.2999 15.3 15.5999 15.1 14.6999 15.1C13.8999 15.1 13.1999 15.2 12.5999 15.4C11.8999 15.6 11.2999 16 10.7999 16.5L8.7999 14C10.5999 12.2 12.7999 11.3 15.4999 11.3ZM12.8999 23C12.8999 23.6 13.0999 24.1 13.4999 24.4C13.8999 24.7 14.3999 24.9 14.9999 24.9C15.4999 24.9 16.0999 24.8 16.5999 24.5C17.0999 24.3 17.5999 24 17.8999 23.6V20.4C17.4999 20.4 16.9999 20.3 16.3999 20.3C13.9999 20.4 12.8999 21.3 12.8999 23Z" fill="white"/>
<path d="M33 2H0V36H45.3V11.3H40.3V31H5V7H33V2Z" fill="white"/>
<path d="M45.2998 11.3H36.9998H32.9998V5.09998H27.7998V11.3H24.5998H21.2998C22.5998 12.2 23.6998 13.6 24.3998 15.5H27.7998V22.2C27.7998 23.5 28.0998 24.6 28.5998 25.5C29.0998 26.4 29.7998 27.1 30.6998 27.6C31.5998 28.1 32.6998 28.3 33.8998 28.3C34.4998 28.3 35.0998 28.3 35.5998 28.2C36.0998 28.1 36.4998 28 36.8998 27.8V23.5C36.3998 23.7 35.7998 23.8 34.9998 23.8C34.3998 23.8 33.8998 23.6 33.4998 23.1C33.1998 22.6 32.9998 21.9 32.9998 21V15.5H45.2998V11.3Z" fill="white"/>
<path d="M40.5 2L45 8.3H36L40.5 2Z" fill="#FFCA10"/>
</svg>
